<svg width="640" height="640" viewBox="0 0 640 640" fill="none" xmlns="http://www.w3.org/2000/svg">
  <defs>
    <linearGradient id="g1" x1="108" y1="96" x2="520" y2="530" gradientUnits="userSpaceOnUse">
      <stop stop-color="#FFD7DE"/>
      <stop offset="1" stop-color="#FFF4F6"/>
    </linearGradient>
    <linearGradient id="g2" x1="128" y1="120" x2="495" y2="507" gradientUnits="userSpaceOnUse">
      <stop stop-color="#FFA7B7"/>
      <stop offset="1" stop-color="#FFD7DE"/>
    </linearGradient>
  </defs>

  <rect x="32" y="32" width="576" height="576" rx="84" fill="url(#g1)"/>
  <rect x="62" y="62" width="516" height="516" rx="68" stroke="#7E1730" stroke-opacity="0.18" stroke-width="3"/>

  <circle cx="320" cy="276" r="142" stroke="#7E1730" stroke-width="14" opacity="0.18"/>
  <circle cx="320" cy="276" r="116" stroke="#7E1730" stroke-width="7" opacity="0.14" stroke-dasharray="6 18"/>

  <path d="M209 300C252 236 292 208 350 208C399 208 438 228 468 267" stroke="#7E1730" stroke-width="21" stroke-linecap="round"/>
  <path d="M184 251C226 197 276 168 338 168C393 168 440 187 489 231" stroke="#7E1730" stroke-opacity="0.28" stroke-width="12" stroke-linecap="round"/>
  <path d="M174 336C225 378 271 398 330 398C389 398 437 380 480 336" stroke="#7E1730" stroke-width="21" stroke-linecap="round"/>
  <path d="M159 378C216 429 268 451 330 451C393 451 447 428 499 376" stroke="#7E1730" stroke-opacity="0.28" stroke-width="12" stroke-linecap="round"/>

  <path d="M214 290L278 250L341 290L404 250L468 290" stroke="#FF8EA3" stroke-width="14" stroke-linecap="round" stroke-linejoin="round"/>
  <path d="M198 344L262 304L325 344L388 304L452 344" stroke="#FF8EA3" stroke-width="14" stroke-linecap="round" stroke-linejoin="round"/>

  <circle cx="214" cy="290" r="15" fill="#7E1730"/>
  <circle cx="278" cy="250" r="15" fill="#7E1730"/>
  <circle cx="341" cy="290" r="15" fill="#7E1730"/>
  <circle cx="404" cy="250" r="15" fill="#7E1730"/>
  <circle cx="468" cy="290" r="15" fill="#7E1730"/>

  <circle cx="198" cy="344" r="15" fill="#7E1730"/>
  <circle cx="262" cy="304" r="15" fill="#7E1730"/>
  <circle cx="325" cy="344" r="15" fill="#7E1730"/>
  <circle cx="388" cy="304" r="15" fill="#7E1730"/>
  <circle cx="452" cy="344" r="15" fill="#7E1730"/>

  <rect x="185" y="485" width="270" height="18" rx="9" fill="#7E1730" opacity="0.15"/>
  <rect x="213" y="514" width="214" height="12" rx="6" fill="#7E1730" opacity="0.18"/>
  <path d="M254 477H386" stroke="#7E1730" stroke-width="16" stroke-linecap="round"/>

  <g filter="url(#none)">
    <path d="M242 474V450C242 429 259 412 280 412H360C381 412 398 429 398 450V474" fill="url(#g2)" stroke="#7E1730" stroke-width="10"/>
    <path d="M282 412V388C282 367 299 350 320 350C341 350 358 367 358 388V412" stroke="#7E1730" stroke-width="10" stroke-linecap="round"/>
    <circle cx="320" cy="350" r="18" fill="#7E1730"/>
  </g>

  <path d="M196 545C231 521 271 510 320 510C369 510 409 521 444 545" stroke="#7E1730" stroke-opacity="0.14" stroke-width="8" stroke-linecap="round"/>
</svg>
